HIERARCHY
ROOT Pelvis
{
	OFFSET 0.000000 0.000000 0.000000
	CHANNELS 6 Xposition Yposition Zposition Xrotation Yrotation Zrotation
	JOINT LeftUpLeg_virtual
	{
		OFFSET 0.000000 0.000000 0.000000
		CHANNELS 3 Xrotation Yrotation Zrotation
		JOINT LeftUpLeg
		{
			OFFSET 18.735201 -5.666702 -4.541200
			CHANNELS 3 Xrotation Yrotation Zrotation
			JOINT LeftLeg
			{
				OFFSET -0.021200 -31.938179 0.493100
				CHANNELS 3 Xrotation Yrotation Zrotation
				JOINT LeftFoot
				{
					OFFSET 0.021200 -31.938179 -4.336299
					CHANNELS 3 Xrotation Yrotation Zrotation
					JOINT LeftToeBase
					{
						OFFSET 0.943001 -26.722000 15.023500
						CHANNELS 3 Xrotation Yrotation Zrotation
						End Site
						{
							OFFSET 0 0 0
						}
					}
				}
			}
		}
	}
	JOINT RightUpLeg_virtual
	{
		OFFSET 0.000000 0.000000 0.000000
		CHANNELS 3 Xrotation Yrotation Zrotation
		JOINT RightUpLeg
		{
			OFFSET -18.735201 -5.666702 -4.541200
			CHANNELS 3 Xrotation Yrotation Zrotation
			JOINT RightLeg
			{
				OFFSET 0.018946 -31.938133 0.493100
				CHANNELS 3 Xrotation Yrotation Zrotation
				JOINT RightFoot
				{
					OFFSET -0.018946 -31.938126 -4.336299
					CHANNELS 3 Xrotation Yrotation Zrotation
					JOINT RightToeBase
					{
						OFFSET -0.943001 -26.722004 15.023500
						CHANNELS 3 Xrotation Yrotation Zrotation
						End Site
						{
							OFFSET 0 0 0
						}
					}
				}
			}
		}
	}
	JOINT Hips_virtual
	{
		OFFSET 0.000000 0.000000 0.000000
		CHANNELS 3 Xrotation Yrotation Zrotation
		JOINT Hips
		{
			OFFSET -0.000000 -0.000000 -0.000000
			CHANNELS 3 Xrotation Yrotation Zrotation
			JOINT Spine
			{
				OFFSET 0.000000 10.199997 -0.299500
				CHANNELS 3 Xrotation Yrotation Zrotation
				JOINT Spine1
				{
					OFFSET 0.000000 11.900002 -1.516600
					CHANNELS 3 Xrotation Yrotation Zrotation
					JOINT Spine2
					{
						OFFSET 0.000000 13.600006 -2.842500
						CHANNELS 3 Xrotation Yrotation Zrotation
						JOINT Neck_virtual
						{
							OFFSET 0.000000 0.000000 0.000000
							CHANNELS 3 Xrotation Yrotation Zrotation
							JOINT Neck
							{
								OFFSET 0.000000 9.624100 -2.890100
								CHANNELS 3 Xrotation Yrotation Zrotation
								JOINT Head
								{
									OFFSET 0.000000 14.068802 -1.351900
									CHANNELS 3 Xrotation Yrotation Zrotation
									End Site
									{
										OFFSET 0 0 0
									}
								}
							}
						}
						JOINT LeftShoulder_virtual
						{
							OFFSET 0.000000 0.000000 0.000000
							CHANNELS 3 Xrotation Yrotation Zrotation
							JOINT LeftShoulder
							{
								OFFSET 15.263000 10.923401 -0.547700
								CHANNELS 3 Xrotation Yrotation Zrotation
								JOINT LeftArm
								{
									OFFSET 25.438599 -2.830597 -13.032500
									CHANNELS 3 Xrotation Yrotation Zrotation
									JOINT LeftForeArm
									{
										OFFSET 29.960503 0.000000 0.000000
										CHANNELS 3 Xrotation Yrotation Zrotation
										JOINT LeftHand
										{
											OFFSET 27.849251 0.000000 0.000000
											CHANNELS 3 Xrotation Yrotation Zrotation
											End Site
											{
												OFFSET 0 0 0
											}
										}
									}
								}
							}
						}
						JOINT RightShoulder_virtual
						{
							OFFSET 0.000000 0.000000 0.000000
							CHANNELS 3 Xrotation Yrotation Zrotation
							JOINT RightShoulder
							{
								OFFSET -15.263000 10.923401 -0.547700
								CHANNELS 3 Xrotation Yrotation Zrotation
								JOINT RightArm
								{
									OFFSET -25.438599 -2.830597 -13.032500
									CHANNELS 3 Xrotation Yrotation Zrotation
									JOINT RightForeArm
									{
										OFFSET -29.960503 0.000000 0.000000
										CHANNELS 3 Xrotation Yrotation Zrotation
										JOINT RightHand
										{
											OFFSET -27.849251 0.000000 0.000000
											CHANNELS 3 Xrotation Yrotation Zrotation
											End Site
											{
												OFFSET 0 0 0
											}
										}
									}
								}
							}
						}
					}
				}
			}
		}
	}
}
MOTION
Frames: 13
Frame Time: 0.03333333
-3.548849 92.244797 1.874889 0.000000 0.000000 0.000000 -21.880306 -1.391373 3.262232 -109.160910 4.435377 32.891678 126.784143 -16.408114 -3.000152 -33.400691 1.204127 3.591838 0.000000 0.000000 0.000000 -23.485105 -0.425644 2.561890 -126.059283 2.373886 -37.935526 125.713921 15.327814 -5.337045 -26.998006 -1.730527 3.362336 0.000000 0.000000 0.000000 -23.490627 1.079168 3.226360 -0.074622 -2.598016 -1.053426 8.301383 -0.804464 1.034716 16.010252 0.029694 0.851289 0.000000 0.000000 0.000000 19.132352 -0.703827 0.495845 -1.805275 0.615178 -0.475967 0.000000 0.000000 0.000000 12.609964 -0.390134 -0.467573 -2.392124 3.612431 42.048420 -60.194976 -21.547625 -20.174905 -12.679176 -24.672303 3.124527 0.000000 0.000000 0.000000 15.839600 0.458693 0.857506 3.684236 16.908792 -37.163927 -43.726137 13.813903 1.233324 -23.373310 36.489889 5.676378 0.000000 0.000000 0.000000 
-3.030356 91.906723 1.911970 0.000000 0.000000 0.000000 -22.032409 -2.110705 2.871725 -110.292481 3.323043 33.088701 127.919471 -15.800377 -2.548492 -30.437430 1.350329 4.273314 0.000000 0.000000 0.000000 -23.698890 -1.439239 2.187474 -125.813382 3.095131 -37.606263 126.379468 14.828527 -5.308566 -26.910959 -2.086355 4.119066 0.000000 0.000000 0.000000 -23.615463 0.275208 2.781471 0.135202 -3.537031 -0.334196 8.106272 -1.098806 0.517486 15.628917 -0.052829 0.992238 0.000000 0.000000 0.000000 17.850423 -0.731010 0.341240 -2.190241 0.541273 -0.292460 0.000000 0.000000 0.000000 12.174283 -0.380446 -0.462729 -1.631070 2.560972 41.731363 -59.497464 -21.192004 -19.703904 -12.905071 -24.758797 2.936846 0.000000 0.000000 0.000000 15.056361 0.450919 0.679431 4.030205 17.133367 -35.934745 -45.554128 15.221143 5.359757 -22.863461 35.886920 4.460203 0.000000 0.000000 0.000000 
-2.426721 91.620171 1.886480 0.000000 0.000000 0.000000 -23.003947 -2.974403 1.531641 -111.033249 1.677035 33.440251 128.790061 -15.089964 -1.619950 -27.438545 1.031450 5.699105 0.000000 0.000000 0.000000 -24.357319 -2.282867 0.716467 -125.466299 3.697213 -36.437044 125.935246 13.823898 -5.152097 -24.762788 -2.250350 3.488284 0.000000 0.000000 0.000000 -24.241701 -0.893023 1.448255 0.481918 -3.861661 0.013361 8.389224 -1.114823 0.287339 14.342808 -0.212794 1.152698 0.000000 0.000000 0.000000 14.665927 -0.775253 0.279321 -3.223517 0.414722 0.140521 0.000000 0.000000 0.000000 10.939457 -0.446377 -0.350428 -0.735224 1.398884 41.086238 -58.497879 -21.603496 -19.235918 -13.362186 -25.387569 2.903121 0.000000 0.000000 0.000000 13.518995 0.362245 0.440128 4.461768 18.196865 -34.726697 -48.972132 18.058706 8.704763 -21.793308 34.556116 2.433404 0.000000 0.000000 0.000000 
-1.801396 91.710068 1.785212 0.000000 0.000000 0.000000 -24.775453 -3.557289 -0.527157 -110.698816 0.015335 34.074478 128.596452 -14.671313 -0.602856 -23.452366 0.058720 6.912801 0.000000 0.000000 0.000000 -25.369401 -2.664397 -1.646936 -124.562215 3.744721 -35.073581 124.343348 12.621078 -4.782341 -20.545564 -2.181941 2.010898 0.000000 0.000000 0.000000 -25.297644 -1.832712 -0.545860 0.466869 -2.972460 -0.209605 9.056934 -0.947480 0.467634 12.882253 -0.369055 1.303350 0.000000 0.000000 0.000000 11.110416 -0.844081 0.378651 -4.621255 0.284181 0.667109 0.000000 0.000000 0.000000 9.589059 -0.575146 -0.098903 -0.106826 0.548118 40.328022 -57.885054 -22.201588 -19.814491 -13.686928 -27.381523 3.142173 0.000000 0.000000 0.000000 12.064821 0.237217 0.292656 5.011057 19.731527 -34.235032 -52.635702 21.417846 10.436015 -20.255238 32.897466 -0.032544 0.000000 0.000000 0.000000 
-1.186061 92.365616 1.517473 0.000000 0.000000 0.000000 -27.308918 -3.334266 -2.942244 -109.263574 -1.279606 35.256938 127.259333 -14.418270 -0.122798 -17.010516 -0.748638 8.713061 0.000000 0.000000 0.000000 -26.863160 -2.216387 -4.456924 -122.624681 3.162097 -34.225798 121.718971 11.691960 -4.184925 -13.845444 -1.908120 0.519690 0.000000 0.000000 0.000000 -26.944635 -2.200766 -2.837211 0.682096 -1.893273 -1.192353 9.832140 -0.782237 1.037551 12.190698 -0.517021 1.488767 0.000000 0.000000 0.000000 8.871850 -0.911513 0.664496 -5.968266 0.196921 1.107601 0.000000 0.000000 0.000000 9.152074 -0.687205 0.235336 0.153260 0.084123 39.064779 -58.087836 -22.491027 -21.408072 -13.721526 -30.902754 3.739822 0.000000 0.000000 0.000000 11.661081 0.101745 0.303504 5.680526 21.467554 -34.516392 -55.437046 24.200306 10.646068 -18.637686 32.009121 -2.661045 0.000000 0.000000 0.000000 
-0.848845 93.903770 0.755707 0.000000 0.000000 0.000000 -30.219530 -2.094900 -5.127441 -106.686093 -1.806473 36.527203 124.650502 -13.972515 -0.323951 -9.150143 -0.462749 11.774847 0.000000 0.000000 0.000000 -28.924205 -0.911064 -6.943140 -119.392444 2.143990 -33.844052 118.381030 11.083674 -3.618631 -4.887470 -1.448623 -0.678440 0.000000 0.000000 0.000000 -29.281598 -1.606310 -4.895207 0.817031 -1.241892 -1.749739 10.520568 -0.759154 1.907740 13.039981 -0.574573 1.675290 0.000000 0.000000 0.000000 9.385016 -0.941042 1.013746 -6.892784 0.146820 1.336109 0.000000 0.000000 0.000000 10.512039 -0.765798 0.527561 -0.045053 0.259332 37.352997 -59.486904 -22.605346 -24.108789 -13.211815 -34.949784 4.941507 0.000000 0.000000 0.000000 13.108388 0.014436 0.470490 6.319867 23.201965 -35.139151 -57.437123 25.489803 10.809725 -17.005084 32.289330 -5.329028 0.000000 0.000000 0.000000 
-0.680876 96.409828 -0.456390 0.000000 0.000000 0.000000 -33.198193 -0.179867 -6.456517 -102.128445 -1.373445 37.133372 120.053470 -13.420517 -0.545194 -1.772847 0.653754 14.780439 0.000000 0.000000 0.000000 -31.540082 1.018069 -8.417456 -114.169139 0.771488 -33.804310 113.566778 10.834375 -3.146961 5.560502 -0.906408 -1.443952 0.000000 0.000000 0.000000 -31.980482 -0.362501 -6.124974 0.819535 -0.615754 -2.014672 11.036297 -0.839139 2.848008 15.618720 -0.485218 1.830055 0.000000 0.000000 0.000000 12.849024 -0.889883 1.333014 -7.189531 0.145534 1.290339 0.000000 0.000000 0.000000 13.644797 -0.761823 0.799921 -0.515174 0.758507 35.235676 -62.656112 -22.072497 -28.286530 -11.776499 -37.801569 7.155930 0.000000 0.000000 0.000000 16.346651 0.026908 0.743606 6.786234 24.963392 -35.241748 -58.614921 24.891585 11.075756 -15.459244 33.887806 -7.626797 0.000000 0.000000 0.000000 
-0.681666 100.132454 -2.226166 0.000000 0.000000 0.000000 -35.956196 1.348068 -6.791195 -94.528841 0.255312 36.763944 112.119331 -13.205133 -0.429460 4.687396 2.023332 16.046824 0.000000 0.000000 0.000000 -34.312292 2.755167 -8.626870 -106.248558 -1.286561 -33.686394 106.218437 10.877517 -2.527066 15.359567 -0.413447 -1.540619 0.000000 0.000000 0.000000 -34.705909 0.820216 -6.295295 0.776827 -0.253083 -1.795940 11.648289 -0.890307 3.437477 19.429585 -0.295651 1.800287 0.000000 0.000000 0.000000 18.368993 -0.760938 1.399715 -6.845965 0.170876 0.939944 0.000000 0.000000 0.000000 17.886973 -0.622674 0.887119 -0.810837 0.889226 32.575795 -66.937193 -21.731107 -32.998840 -9.617672 -38.942136 10.036742 0.000000 0.000000 0.000000 20.608788 0.128182 0.955348 6.810374 26.644450 -34.142593 -59.554796 22.918042 10.665293 -14.178377 37.206752 -9.223478 0.000000 0.000000 0.000000 
-0.797672 105.128143 -4.479229 0.000000 0.000000 0.000000 -38.115290 1.548886 -6.448348 -83.886703 3.260841 35.374663 99.484874 -13.709745 -0.456209 11.120539 2.926390 14.445041 0.000000 0.000000 0.000000 -36.761109 3.447252 -8.024395 -95.417196 -4.538661 -33.313551 95.314682 10.817811 -1.241316 22.940515 0.049809 -0.764417 0.000000 0.000000 0.000000 -36.985123 1.399767 -5.723764 0.700132 -0.235116 -1.382014 12.404240 -0.711922 3.395530 23.590661 -0.107100 1.542084 0.000000 0.000000 0.000000 24.231568 -0.584324 1.172398 -6.021922 0.182113 0.380274 0.000000 0.000000 0.000000 22.226076 -0.464675 0.743387 -0.568665 0.052604 29.476071 -71.062149 -21.954504 -37.642183 -6.975976 -38.862018 13.091600 0.000000 0.000000 0.000000 24.730097 0.286480 0.995248 6.379627 27.964155 -31.749991 -60.829842 21.448916 9.716293 -12.975292 41.547023 -9.966099 0.000000 0.000000 0.000000 
-0.926074 111.259865 -6.683708 0.000000 0.000000 0.000000 -39.049506 0.598226 -5.874610 -71.711085 6.993103 32.788398 82.074053 -14.666172 -1.302490 18.764300 3.180639 10.642024 0.000000 0.000000 0.000000 -38.122059 3.017349 -7.186226 -82.007500 -9.085135 -32.443259 79.506653 10.067163 0.943336 28.814178 0.525370 0.752241 0.000000 0.000000 0.000000 -37.952810 1.217591 -4.960562 0.658498 -0.647434 -1.391589 13.117498 -0.356851 2.732965 26.734083 0.011357 1.212344 0.000000 0.000000 0.000000 28.594310 -0.431836 0.839154 -4.934147 0.128193 -0.213639 0.000000 0.000000 0.000000 25.353199 -0.299709 0.497260 0.143221 -1.930063 25.711042 -73.425340 -21.869263 -41.489837 -3.466903 -39.818217 16.362572 0.000000 0.000000 0.000000 27.449849 0.427588 0.919057 5.696402 28.972501 -27.787648 -62.295683 22.058258 9.840825 -11.571081 45.410905 -10.126946 0.000000 0.000000 0.000000 
-0.961249 118.343361 -8.770214 0.000000 0.000000 0.000000 -37.952800 -0.739123 -5.396269 -59.957907 10.393410 28.871094 62.284638 -14.872233 -2.940497 28.313043 3.655524 6.477366 0.000000 0.000000 0.000000 -37.434730 1.845167 -6.514402 -66.633345 -13.701524 -29.725711 59.347760 8.218077 3.024428 33.594572 1.212743 2.985141 0.000000 0.000000 0.000000 -37.078030 0.768529 -4.324604 0.475357 -1.486981 -1.475952 13.579447 0.028340 1.608524 27.792050 0.062024 0.946690 0.000000 0.000000 0.000000 30.075519 -0.314518 0.551478 -3.808965 0.012685 -0.721302 0.000000 0.000000 0.000000 26.409968 -0.191098 0.205649 1.169350 -4.647544 21.330705 -72.982566 -21.399498 -43.911177 1.800314 -43.713921 20.450020 0.000000 0.000000 0.000000 27.818503 0.542868 0.798523 4.846237 29.580702 -22.427640 -63.610679 24.464173 13.147403 -9.399815 47.345741 -10.221752 0.000000 0.000000 0.000000 
-0.889899 126.098007 -10.340271 0.000000 0.000000 0.000000 -34.430567 -1.716359 -5.014461 -49.935520 12.921150 24.100854 43.906129 -13.878618 -4.180439 38.415156 4.606286 2.997290 0.000000 0.000000 0.000000 -34.209744 0.713418 -6.075823 -51.674752 -16.347242 -25.493688 38.573005 5.782238 3.831501 38.232264 2.731104 6.056658 0.000000 0.000000 0.000000 -34.081039 0.588577 -3.884162 0.303408 -2.560862 -2.029916 13.295660 0.412192 0.270130 26.353074 0.014896 0.792714 0.000000 0.000000 0.000000 28.088434 -0.227934 0.413531 -2.801458 -0.131254 -1.011755 0.000000 0.000000 0.000000 25.076746 -0.182926 -0.052855 2.140827 -7.725928 16.394821 -69.451303 -19.549489 -45.311680 9.863056 -50.052982 26.551954 0.000000 0.000000 0.000000 25.609022 0.566149 0.625983 3.844112 29.338138 -15.754193 -63.312753 26.884917 19.973143 -6.398170 46.800265 -10.598021 0.000000 0.000000 0.000000 
-0.848573 134.248032 -11.073822 0.000000 0.000000 0.000000 -28.630317 -1.509377 -4.550041 -42.349458 14.567456 19.285538 28.832206 -12.320418 -4.215789 46.767873 5.694651 0.541806 0.000000 0.000000 0.000000 -28.574752 0.540088 -5.523225 -40.387926 -16.080559 -21.227765 22.839401 3.631577 3.093245 42.600255 4.600613 9.394153 0.000000 0.000000 0.000000 -28.937271 1.021828 -3.537349 0.071252 -3.458890 -2.298676 12.276488 0.785667 -0.947277 22.537345 -0.028696 0.699276 0.000000 0.000000 0.000000 23.165826 -0.234141 0.383461 -2.023384 -0.285477 -1.072805 0.000000 0.000000 0.000000 21.423057 -0.175930 -0.243834 2.665491 -10.355657 10.941108 -63.408389 -16.167544 -46.211783 22.990591 -57.655963 37.153456 0.000000 0.000000 0.000000 21.120538 0.457086 0.426265 2.652880 28.089594 -7.710036 -59.250805 27.353851 28.502806 -2.746348 45.268404 -11.234475 0.000000 0.000000 0.000000 
